# xmcd CD database file
#
# Track frame offsets:
#	150
#	16486
#	35043
#	59175
#	82257
#	97667
#	114141
#	130475
#	146856
#	165421
#	182316
#	201156
#
# Disc length: 3014 seconds
#
# Revision: 0
# Processed by: cddbd v1.5.1PL2 Copyright (c) Steve Scherf et al.
# Submitted via: CDex 1.51
#
DISCID=a50bc40c
DTITLE=ラブひな - ラブひな ヴォーカル・コンプリート・ボックス 届け、私たちの歌 Disc4
DYEAR=2006
DGENRE=Anime
TTITLE0=春だもの!
TTITLE1=スマイル スマイル〜VERSION2001〜
TTITLE2=Sweet blue days〜GREENHORN VERSION〜
TTITLE3=未来への贈り物
TTITLE4=はじまりはここから
TTITLE5=春だもの!-成瀬川なるver.-
TTITLE6=春だもの!-前原しのぶver.-
TTITLE7=春だもの!-乙姫むつみver.-
TTITLE8=イツマデモ ドコマデモ
TTITLE9=心はハチャメチャカーニバル
TTITLE10=LOVE LABYRINTH
TTITLE11=Friendship
EXTD=YEAR: 2006
EXTT0=
EXTT1=
EXTT2=
EXTT3=
EXTT4=
EXTT5=
EXTT6=
EXTT7=
EXTT8=
EXTT9=
EXTT10=
EXTT11=
PLAYORDER=
